HIERARCHY
ROOT Hips
{
	OFFSET 0.000000 104.274902 0.000000
	CHANNELS 6 Xposition Yposition Zposition Xrotation Yrotation Zrotation
	JOINT Spine
	{
		OFFSET 0.000000 10.181549 0.131524
		CHANNELS 6 Xposition Yposition Zposition Xrotation Yrotation Zrotation
		JOINT Spine1
		{
			OFFSET 0.000000 9.893990 -1.470706
			CHANNELS 3 Xrotation Yrotation Zrotation
			JOINT Spine2
			{
				OFFSET 0.000000 9.220787 -1.370637
				CHANNELS 3 Xrotation Yrotation Zrotation
				JOINT Neck
				{
					OFFSET 0.000000 16.740372 -2.049022
					CHANNELS 6 Xposition Yposition Zposition Xrotation Yrotation Zrotation
					JOINT Head
					{
						OFFSET 0.000000 9.617859 1.684976
						CHANNELS 6 Xposition Yposition Zposition Xrotation Yrotation Zrotation
						JOINT HeadTop_End
						{
							OFFSET 0.000000 22.037384 7.501072
							CHANNELS 6 Xposition Yposition Zposition Xrotation Yrotation Zrotation
							End Site
							{
								OFFSET 0.000000 23.106567 -2.828246
							}
						}
					}
				}
				JOINT RightShoulder
				{
					OFFSET -4.570000 11.014877 -2.160840
					CHANNELS 6 Xposition Yposition Zposition Xrotation Yrotation Zrotation
					JOINT RightArm
					{
						OFFSET -10.592867 -0.524796 -2.232105
						CHANNELS 3 Xrotation Yrotation Zrotation
						JOINT RightForeArm
						{
							OFFSET -27.841497 0.000000 -0.000002
							CHANNELS 3 Xrotation Yrotation Zrotation
							JOINT RightHand
							{
								OFFSET -28.328812 0.000000 -0.000001
								CHANNELS 3 Xrotation Yrotation Zrotation
								JOINT RightHandThumb1
								{
									OFFSET -2.464798 -1.573990 2.681911
									CHANNELS 6 Xposition Yposition Zposition Xrotation Yrotation Zrotation
									JOINT RightHandThumb2
									{
										OFFSET -3.244781 -1.873383 1.873376
										CHANNELS 3 Xrotation Yrotation Zrotation
										JOINT RightHandThumb3
										{
											OFFSET -2.646263 -1.527817 1.527818
											CHANNELS 6 Xposition Yposition Zposition Xrotation Yrotation Zrotation
											JOINT RightHandThumb4
											{
												OFFSET -1.994591 -1.151581 1.151575
												CHANNELS 6 Xposition Yposition Zposition Xrotation Yrotation Zrotation
												End Site
												{
													OFFSET -1.860176 -1.142715 1.365483
												}
											}
										}
									}
								}
								JOINT RightHandIndex1
								{
									OFFSET -9.108299 -0.517883 2.259803
									CHANNELS 6 Xposition Yposition Zposition Xrotation Yrotation Zrotation
									JOINT RightHandIndex2
									{
										OFFSET -3.699997 0.000000 0.000000
										CHANNELS 3 Xrotation Yrotation Zrotation
										JOINT RightHandIndex3
										{
											OFFSET -2.850006 0.000000 0.000000
											CHANNELS 3 Xrotation Yrotation Zrotation
											JOINT RightHandIndex4
											{
												OFFSET -2.772194 0.000000 0.000000
												CHANNELS 3 Xrotation Yrotation Zrotation
												End Site
												{
													OFFSET -2.772202 0.000000 -0.000484
												}
											}
										}
									}
								}
								JOINT RightHandMiddle1
								{
									OFFSET -9.532501 0.000000 -0.000000
									CHANNELS 6 Xposition Yposition Zposition Xrotation Yrotation Zrotation
									JOINT RightHandMiddle2
									{
										OFFSET -3.699997 0.000000 0.000000
										CHANNELS 3 Xrotation Yrotation Zrotation
										JOINT RightHandMiddle3
										{
											OFFSET -2.949997 0.000000 0.000000
											CHANNELS 3 Xrotation Yrotation Zrotation
											JOINT RightHandMiddle4
											{
												OFFSET -2.946594 0.000000 0.000000
												CHANNELS 3 Xrotation Yrotation Zrotation
												End Site
												{
													OFFSET -2.946602 0.000000 -0.000982
												}
											}
										}
									}
								}
								JOINT RightHandRing1
								{
									OFFSET -9.103600 -0.043106 -1.865100
									CHANNELS 6 Xposition Yposition Zposition Xrotation Yrotation Zrotation
									JOINT RightHandRing2
									{
										OFFSET -3.379303 0.000000 0.000000
										CHANNELS 3 Xrotation Yrotation Zrotation
										JOINT RightHandRing3
										{
											OFFSET -2.889694 0.000000 0.000000
											CHANNELS 3 Xrotation Yrotation Zrotation
											JOINT RightHandRing4
											{
												OFFSET -2.638802 0.000000 0.000000
												CHANNELS 3 Xrotation Yrotation Zrotation
												End Site
												{
													OFFSET -2.638802 0.000000 0.004218
												}
											}
										}
									}
								}
								JOINT RightHandPinky1
								{
									OFFSET -8.076698 -0.486725 -3.806299
									CHANNELS 6 Xposition Yposition Zposition Xrotation Yrotation Zrotation
									JOINT RightHandPinky2
									{
										OFFSET -3.600006 0.000000 0.000000
										CHANNELS 3 Xrotation Yrotation Zrotation
										JOINT RightHandPinky3
										{
											OFFSET -2.099998 0.000000 0.000000
											CHANNELS 3 Xrotation Yrotation Zrotation
											JOINT RightHandPinky4
											{
												OFFSET -2.115791 0.000000 0.000000
												CHANNELS 3 Xrotation Yrotation Zrotation
												End Site
												{
													OFFSET -2.115799 0.000000 0.000174
												}
											}
										}
									}
								}
							}
						}
					}
				}
				JOINT LeftShoulder
				{
					OFFSET 4.570400 11.014679 -2.160816
					CHANNELS 6 Xposition Yposition Zposition Xrotation Yrotation Zrotation
					JOINT LeftArm
					{
						OFFSET 10.592373 -0.524597 -2.232116
						CHANNELS 3 Xrotation Yrotation Zrotation
						JOINT LeftForeArm
						{
							OFFSET 27.841488 0.000000 0.000001
							CHANNELS 3 Xrotation Yrotation Zrotation
							JOINT LeftHand
							{
								OFFSET 28.328808 0.000000 -0.000000
								CHANNELS 3 Xrotation Yrotation Zrotation
								JOINT LeftHandThumb1
								{
									OFFSET 2.466103 -1.576202 2.681698
									CHANNELS 6 Xposition Yposition Zposition Xrotation Yrotation Zrotation
									JOINT LeftHandThumb2
									{
										OFFSET 3.243317 -1.872528 1.872530
										CHANNELS 3 Xrotation Yrotation Zrotation
										JOINT LeftHandThumb3
										{
											OFFSET 2.647881 -1.528763 1.528754
											CHANNELS 6 Xposition Yposition Zposition Xrotation Yrotation Zrotation
											JOINT LeftHandThumb4
											{
												OFFSET 1.998924 -1.154083 1.154080
												CHANNELS 6 Xposition Yposition Zposition Xrotation Yrotation Zrotation
												End Site
												{
													OFFSET 1.884041 -1.149155 1.337651
												}
											}
										}
									}
								}
								JOINT LeftHandIndex1
								{
									OFFSET 9.109299 -0.518005 2.259900
									CHANNELS 6 Xposition Yposition Zposition Xrotation Yrotation Zrotation
									JOINT LeftHandIndex2
									{
										OFFSET 3.699997 0.000000 0.000000
										CHANNELS 3 Xrotation Yrotation Zrotation
										JOINT LeftHandIndex3
										{
											OFFSET 2.850006 0.000000 0.000000
											CHANNELS 3 Xrotation Yrotation Zrotation
											JOINT LeftHandIndex4
											{
												OFFSET 2.774895 0.000000 0.000000
												CHANNELS 3 Xrotation Yrotation Zrotation
												End Site
												{
													OFFSET 2.774902 0.000000 -0.000072
												}
											}
										}
									}
								}
								JOINT LeftHandMiddle1
								{
									OFFSET 9.533401 0.000000 0.000000
									CHANNELS 6 Xposition Yposition Zposition Xrotation Yrotation Zrotation
									JOINT LeftHandMiddle2
									{
										OFFSET 3.699997 0.000000 0.000000
										CHANNELS 3 Xrotation Yrotation Zrotation
										JOINT LeftHandMiddle3
										{
											OFFSET 2.949997 0.000000 0.000000
											CHANNELS 3 Xrotation Yrotation Zrotation
											JOINT LeftHandMiddle4
											{
												OFFSET 2.952896 0.000000 0.000000
												CHANNELS 3 Xrotation Yrotation Zrotation
												End Site
												{
													OFFSET 2.952904 0.000000 0.000165
												}
											}
										}
									}
								}
								JOINT LeftHandRing1
								{
									OFFSET 9.104500 -0.042999 -1.865101
									CHANNELS 6 Xposition Yposition Zposition Xrotation Yrotation Zrotation
									JOINT LeftHandRing2
									{
										OFFSET 3.149994 0.000000 0.000000
										CHANNELS 3 Xrotation Yrotation Zrotation
										JOINT LeftHandRing3
										{
											OFFSET 2.950005 0.000000 0.000000
											CHANNELS 3 Xrotation Yrotation Zrotation
											JOINT LeftHandRing4
											{
												OFFSET 2.644302 0.000000 0.000000
												CHANNELS 3 Xrotation Yrotation Zrotation
												End Site
												{
													OFFSET 2.644302 0.000000 0.000083
												}
											}
										}
									}
								}
								JOINT LeftHandPinky1
								{
									OFFSET 8.077805 -0.486893 -3.806302
									CHANNELS 6 Xposition Yposition Zposition Xrotation Yrotation Zrotation
									JOINT LeftHandPinky2
									{
										OFFSET 3.600006 0.000000 0.000000
										CHANNELS 3 Xrotation Yrotation Zrotation
										JOINT LeftHandPinky3
										{
											OFFSET 2.099998 0.000000 0.000000
											CHANNELS 3 Xrotation Yrotation Zrotation
											JOINT LeftHandPinky4
											{
												OFFSET 2.125496 0.000000 0.000000
												CHANNELS 3 Xrotation Yrotation Zrotation
												End Site
												{
													OFFSET 2.125504 0.000000 -0.001254
												}
											}
										}
									}
								}
							}
						}
					}
				}
			}
		}
	}
	JOINT RightUpLeg
	{
		OFFSET -8.207800 -6.751701 -1.599544
		CHANNELS 6 Xposition Yposition Zposition Xrotation Yrotation Zrotation
		JOINT RightLeg
		{
			OFFSET 0.000004 -44.370152 0.345934
			CHANNELS 3 Xrotation Yrotation Zrotation
			JOINT RightFoot
			{
				OFFSET 0.000004 -44.423664 -3.043535
				CHANNELS 3 Xrotation Yrotation Zrotation
				JOINT RightToeBase
				{
					OFFSET 0.000001 -8.728691 10.710592
					CHANNELS 3 Xrotation Yrotation Zrotation
					JOINT RightToe_End
					{
						OFFSET 0.000000 -0.000665 9.278101
						CHANNELS 3 Xrotation Yrotation Zrotation
						End Site
						{
							OFFSET 0.000000 -0.000665 9.278103
						}
					}
				}
			}
		}
	}
	JOINT LeftUpLeg
	{
		OFFSET 8.207800 -6.751701 -1.599544
		CHANNELS 6 Xposition Yposition Zposition Xrotation Yrotation Zrotation
		JOINT LeftLeg
		{
			OFFSET 0.000004 -44.370037 0.346940
			CHANNELS 3 Xrotation Yrotation Zrotation
			JOINT LeftFoot
			{
				OFFSET 0.000004 -44.423611 -3.044388
				CHANNELS 3 Xrotation Yrotation Zrotation
				JOINT LeftToeBase
				{
					OFFSET 0.000001 -8.728690 10.710592
					CHANNELS 3 Xrotation Yrotation Zrotation
					JOINT LeftToe_End
					{
						OFFSET 0.000000 -0.000680 9.278101
						CHANNELS 3 Xrotation Yrotation Zrotation
						End Site
						{
							OFFSET 0.000000 -0.000680 9.278101
						}
					}
				}
			}
		}
	}
}
MOTION
Frames: 4
Frame Time: 0.033333
-0.039900 85.890678 1.896824 20.902126 -17.833467 -4.376707 0.000000 10.181558 0.131523 14.768758 12.164594 1.897557 1.125369 3.043481 0.718810 1.161042 3.003451 0.698313 0.000001 16.740358 -2.049022 -7.397901 -1.715570 1.362029 -0.000003 9.617854 1.684987 -24.462886 4.422511 -3.824720 0.000000 22.037384 7.501072 -0.000000 0.000000 -0.000000 -4.569996 11.014877 -2.160843 0.028180 10.433411 18.794087 -26.037622 18.459780 42.054673 0.000223 101.391952 -0.000178 35.578298 9.393029 -11.571736 -2.464796 -1.573990 2.681906 -10.756910 1.839642 -0.932920 18.899012 -22.871802 3.226001 -2.646268 -1.527817 1.527821 -14.843801 20.356972 -4.424260 -1.994584 -1.151603 1.151578 -0.000000 -0.000003 -0.000003 -9.108301 -0.517862 2.259799 -4.483556 -1.633343 60.836270 2.386083 -4.066954 60.786717 0.834443 -2.662008 34.802331 0.000001 0.000004 0.000005 -9.532504 0.000008 -0.000003 -3.542180 -3.339792 63.249853 3.206910 -4.426071 71.837423 1.991347 -3.820103 55.051878 0.000003 -0.000000 -0.000000 -9.103605 -0.043095 -1.865105 -5.003901 -4.842216 77.065639 3.666951 -4.550897 77.710921 1.310726 -3.240760 44.033120 -0.000003 0.000000 -0.000001 -8.076711 -0.486708 -3.806300 -2.037451 -6.030575 81.871948 3.946747 -4.602777 81.216127 3.168669 -4.413394 71.341353 -0.000001 0.000000 -0.000001 4.570404 11.014688 -2.160824 0.742367 3.088824 -12.371805 42.308613 15.801646 -67.596962 0.000019 -65.652735 0.000025 16.513400 -11.286018 20.526190 2.466099 -1.576197 2.681699 -6.294432 -5.259180 19.134795 15.737150 25.746246 -15.059621 2.647887 -1.528749 1.528747 -6.887624 -27.203773 16.700745 1.998935 -1.154088 1.154091 0.000003 -0.000002 -0.000001 9.109296 -0.518014 2.259903 -4.045873 -10.147540 -29.308458 4.736657 5.744482 -79.001725 0.808994 2.972541 -30.445035 -0.000000 0.000004 0.000000 9.533410 0.000001 0.000003 -4.499611 0.901374 -48.454154 3.485866 5.353385 -66.120582 0.977466 3.241794 -33.552454 -0.000001 -0.000001 0.000003 9.104499 -0.042985 -1.865100 -3.481962 2.398639 -51.838742 4.533363 5.701416 -76.963241 0.723213 2.821693 -28.747788 -0.000004 0.000001 -0.000003 8.077789 -0.486873 -3.806299 -1.657177 4.477835 -57.526018 2.711985 4.940329 -57.509585 0.990331 3.261056 -33.779199 0.000002 -0.000001 0.000005 -8.207799 -6.751694 -1.599546 -29.110714 -0.127461 5.102026 56.108389 7.070965 -4.032326 -37.900884 -1.242027 3.077360 -10.981030 0.000001 -0.000000 -0.000000 -0.000000 -0.000000 8.207799 -6.751694 -1.599547 -71.381160 -2.035734 19.411637 120.533701 -2.056590 0.910660 -5.579986 -0.734234 13.088316 -6.008701 0.000001 0.000004 0.000001 -0.000001 0.000002 
-1.241892 94.672661 12.060708 12.952537 -29.921587 0.496145 -0.000000 10.181547 0.131525 14.836178 16.275740 3.664904 1.555425 7.164483 1.840792 1.280311 7.257913 1.820494 -0.000007 16.740368 -2.049025 -6.431603 -2.496551 0.891581 -0.000006 9.617834 1.684989 -22.474901 2.242501 -5.898107 0.000000 22.037354 7.501070 -0.000000 0.000000 0.000000 -4.570002 11.014872 -2.160846 0.444014 11.751434 10.940281 -41.481713 15.577505 52.941309 0.000181 114.536269 -0.000114 46.017617 -1.786164 10.123702 -2.464787 -1.573981 2.681906 -14.665958 6.196288 3.768863 19.497583 -26.779478 3.096643 -2.646268 -1.527788 1.527825 -8.558212 -3.350991 -11.700531 -1.994599 -1.151585 1.151573 -0.000002 -0.000003 -0.000003 -9.108306 -0.517866 2.259800 -5.336900 3.989601 36.753207 0.561148 -2.218180 28.390684 0.286281 -1.609209 20.173426 -0.000001 -0.000001 0.000003 -9.532509 0.000007 -0.000001 -3.024051 -1.187177 45.426765 1.247341 -3.173967 42.899964 1.410294 -3.340512 45.767619 0.000000 -0.000001 0.000000 -9.103584 -0.043081 -1.865102 -0.795238 -4.407118 58.931098 1.585900 -3.502615 48.709009 0.788074 -2.594125 33.791418 -0.000001 -0.000001 -0.000003 -8.076720 -0.486696 -3.806297 1.726184 -8.086693 63.532097 1.569502 -3.488155 48.440183 2.468190 -4.111665 61.937911 -0.000000 -0.000001 -0.000000 4.570398 11.014694 -2.160822 0.532009 3.470461 -10.139353 53.930883 19.538680 -69.082391 0.000025 -75.709198 0.000036 8.320315 -11.473078 24.112236 2.466099 -1.576193 2.681695 -6.338957 -5.513184 18.893570 15.489752 26.136786 -14.594248 2.647878 -1.528740 1.528754 -6.995434 -27.786453 16.869893 1.998943 -1.154066 1.154086 -0.000001 -0.000000 -0.000001 9.109292 -0.518023 2.259894 -3.975117 -10.269656 -26.359063 3.443964 5.334688 -65.670247 0.327263 1.932531 -19.223714 -0.000002 -0.000004 -0.000002 9.533390 0.000002 -0.000004 -4.422804 0.792992 -47.591672 2.347992 4.689572 -53.175260 0.529395 2.435659 -24.523820 0.000001 0.000002 -0.000001 9.104508 -0.042995 -1.865106 -2.386716 3.147344 -50.912059 3.858516 5.502589 -70.058138 0.754951 2.878742 -29.386250 0.000000 0.000000 0.000001 8.077799 -0.486886 -3.806305 1.402005 6.516885 -56.653107 2.740239 4.958148 -57.837291 1.083025 3.395326 -35.376053 -0.000001 0.000001 -0.000000 -8.207799 -6.751728 -1.599545 -1.977402 -1.873916 -4.247599 22.699495 2.875704 -10.182899 -14.041266 10.173869 10.336199 -24.486279 -0.000006 0.000001 -0.000000 -0.000000 -0.000000 8.207797 -6.751713 -1.599552 -88.975017 -5.382208 13.938193 128.127355 6.182765 4.372969 1.750745 -6.563345 16.298349 -0.991000 0.000002 -0.000006 0.000001 0.000003 -0.000000 
-3.031945 105.878380 19.816408 1.969601 -40.739964 1.361876 -0.000002 10.181545 0.131523 13.948049 17.063139 4.408974 1.324393 9.913381 3.992789 0.403841 10.155212 3.888943 0.000005 16.740362 -2.049022 -3.913334 -3.336467 0.739465 -0.000000 9.617871 1.684984 -18.812255 1.173967 -5.590567 -0.000001 22.037399 7.501073 0.000002 0.000000 -0.000000 -4.569999 11.014845 -2.160839 0.511343 10.625684 2.863572 -49.581668 5.113979 56.969911 0.000124 125.147193 -0.000043 47.866427 -1.569762 22.814510 -2.464787 -1.574018 2.681907 -17.078663 8.614826 6.858520 19.855162 -29.259885 3.021389 -2.646258 -1.527811 1.527823 -5.880508 -20.452288 -15.300822 -1.994595 -1.151579 1.151576 0.000003 -0.000000 0.000002 -9.108309 -0.517875 2.259800 -4.571695 8.410731 22.415170 0.057475 -0.730285 9.002272 0.092153 -0.922812 11.404220 -0.000000 0.000000 0.000001 -9.532501 0.000002 -0.000001 -2.267507 0.267288 31.243177 0.283358 -1.601245 20.069193 0.971953 -2.849486 37.662367 -0.000002 -0.000000 -0.000003 -9.103607 -0.043105 -1.865099 1.716864 -5.882920 44.329027 0.479860 -2.060785 26.213136 0.532901 -2.165110 27.651889 -0.000001 -0.000001 -0.000002 -8.076707 -0.486722 -3.806304 3.411764 -11.691009 49.066378 0.578199 -2.249395 28.827835 2.075114 -3.877170 56.299764 -0.000001 -0.000001 0.000001 4.570398 11.014664 -2.160811 0.480900 1.341770 -7.542488 58.616451 21.673457 -58.795013 -0.000021 -84.950498 -0.000033 5.244909 -11.913767 29.004006 2.466109 -1.576203 2.681695 -6.402186 -5.860249 19.003492 15.084466 26.499645 -14.014468 2.647882 -1.528736 1.528754 -7.442254 -29.724310 16.889335 1.998935 -1.154072 1.154087 -0.000000 -0.000000 0.000002 9.109304 -0.518019 2.259898 -3.795736 -10.713467 -22.179149 2.118203 4.508960 -50.310074 0.030747 0.600132 -5.866760 -0.000001 -0.000000 0.000001 9.533412 0.000012 -0.000004 -4.364891 0.525844 -46.061307 1.250655 3.619434 -38.115574 0.166157 1.386845 -13.664877 -0.000002 -0.000000 -0.000003 9.104495 -0.043005 -1.865106 -1.244289 3.930618 -49.410657 3.102563 5.167461 -61.941141 0.781161 2.924704 -29.903763 0.000001 0.000002 -0.000001 8.077806 -0.486894 -3.806307 4.724882 8.850927 -55.321903 2.744185 4.960604 -57.882732 1.161326 3.502788 -36.677511 -0.000003 0.000002 -0.000001 -8.207803 -6.751712 -1.599547 9.153235 -10.709651 -11.745995 7.318164 1.080645 -9.994092 26.677717 22.921579 -4.343753 -43.498022 -0.000003 -0.000006 -0.000000 -0.000001 -0.000000 8.207797 -6.751706 -1.599554 -96.861023 -9.500420 10.292971 128.985254 4.446434 7.478066 17.229734 -6.222623 10.790038 9.955514 -0.000001 -0.000015 0.000001 -0.000001 -0.000002 
-5.076893 116.095680 25.600704 -9.149159 -49.147811 4.029134 -0.000002 10.181554 0.131519 13.853319 13.806976 -1.141279 1.163784 11.085037 5.547435 -0.355023 11.351136 5.404896 0.000006 16.740391 -2.049019 -0.398028 -3.405869 1.073460 0.000004 9.617847 1.684978 -14.944025 4.510565 -3.188710 -0.000003 22.037369 7.501070 0.000001 0.000001 -0.000000 -4.570003 11.014843 -2.160842 0.039650 8.790669 -3.020782 -51.684216 -5.196744 55.123182 0.000136 126.641420 -0.000094 34.749250 -2.207969 11.695747 -2.464754 -1.573987 2.681902 -17.535841 8.871069 6.863551 19.229448 -27.896234 2.411635 -2.646277 -1.527810 1.527821 -6.137257 -18.243290 -14.987085 -1.994598 -1.151581 1.151583 0.000009 0.000001 -0.000003 -9.108267 -0.517882 2.259798 -4.960946 10.974587 20.443823 0.025468 -0.486867 5.987664 0.060256 -0.747523 9.216641 0.000002 -0.000001 0.000003 -9.532459 0.000005 -0.000002 -1.743336 1.181387 22.454506 0.034608 -0.567355 6.982232 0.606794 -2.300545 29.548139 -0.000000 -0.000003 0.000001 -9.103568 -0.043110 -1.865102 2.195154 -6.765876 35.572281 0.156432 -1.198143 14.876548 0.511708 -2.124200 27.085479 0.000000 -0.000000 -0.000000 -8.076658 -0.486725 -3.806296 4.771659 -15.101174 41.973855 0.508945 -2.118807 27.010922 2.039952 -3.853535 55.777995 0.000000 -0.000001 -0.000001 4.570402 11.014682 -2.160815 0.797449 -1.596981 -6.387605 50.822362 23.487093 -40.409534 0.000013 -83.212290 0.000041 6.539128 -10.435390 30.804385 2.466111 -1.576207 2.681696 -6.456932 -6.160668 18.937577 14.751844 26.868651 -13.484077 2.647892 -1.528751 1.528748 -7.736260 -30.981004 16.970370 1.998947 -1.154071 1.154084 -0.000000 0.000000 -0.000003 9.109303 -0.518009 2.259899 -3.671384 -11.049545 -18.617897 1.121135 3.448269 -36.014368 0.036700 -0.655369 6.408804 -0.000000 -0.000001 0.000000 9.533396 0.000004 -0.000001 -4.292665 0.341247 -44.864395 0.514221 2.402126 -24.163961 0.012460 0.382571 -3.735844 -0.000001 0.000001 0.000000 9.104490 -0.042999 -1.865100 -0.177727 4.764288 -48.212308 2.452392 4.765696 -54.441898 0.810914 2.975782 -30.481847 -0.000003 -0.000000 0.000001 8.077810 -0.486894 -3.806304 7.815224 11.211203 -54.383831 2.760319 4.970667 -58.069305 1.251402 3.620355 -38.127222 -0.000000 -0.000001 0.000001 -8.207798 -6.751705 -1.599548 9.900990 -17.165121 -21.619280 7.950660 4.281989 -9.544201 44.233511 19.730104 -12.453293 -24.727178 -0.000003 0.000003 -0.000003 0.000001 -0.000001 8.207797 -6.751704 -1.599546 -96.111594 -11.768445 12.628106 128.418416 0.425923 4.419439 29.138967 -7.820421 1.721486 22.454530 -0.000002 -0.000018 0.000001 0.000002 0.000001 
